<svg xmlns="http://www.w3.org/2000/svg" width="62" height="62" viewBox="0 0 62 62">
  <g id="Grupo_5" data-name="Grupo 5" transform="translate(-275.667 -695.667)">
    <circle id="Elipse_2" data-name="Elipse 2" cx="29" cy="29" r="29" transform="translate(277.667 697.667)" fill="#fff" stroke="#707070" stroke-miterlimit="10" stroke-width="4"/>
    <g id="Grupo_4" data-name="Grupo 4" transform="translate(285.411 711.324)">
      <path id="Trazado_2" data-name="Trazado 2" d="M310.755,717.621c5.969,0,11.939.034,17.908-.018a3.819,3.819,0,0,1,3.918,3.913q-.013,11.368-.005,22.734a3.743,3.743,0,0,1-2.742,3.76,3.789,3.789,0,0,1-1.019.119q-18.057,0-36.115,0a3.661,3.661,0,0,1-3.711-3.643c-.029-2.263-.01-4.527-.01-6.79q0-8.089,0-16.177a3.731,3.731,0,0,1,2.069-3.525,3.63,3.63,0,0,1,1.768-.374q5.408.01,10.817,0Zm-17.185,2.7c.025.127.113.166.175.223q7.116,6.518,14.236,13.03a8.623,8.623,0,0,0,2.165,1.58,1.42,1.42,0,0,0,1.247,0,7.671,7.671,0,0,0,1.969-1.4q7.246-6.621,14.484-13.252c.05-.046.143-.075.112-.186Zm34.3,25.107c.013-.11-.075-.14-.127-.188q-5.467-5.018-10.933-10.037c-.172-.158-.257-.119-.4.014-.571.526-1.144,1.049-1.728,1.561a6.044,6.044,0,0,1-7.761.04q-.882-.76-1.727-1.563c-.19-.181-.294-.2-.5-.008q-5.4,4.97-10.81,9.926c-.076.07-.186.117-.21.255Zm1.976-1.912V722.792c-.087.071-.145.114-.2.162q-5.414,4.9-10.83,9.8c-.216.195-.233.282-.008.489q3.641,3.365,7.261,6.753ZM291.7,743.5c.082-.068.115-.094.145-.122q5.49-5.11,10.983-10.217c.154-.143.117-.207-.014-.326q-5.478-4.951-10.951-9.907c-.043-.039-.075-.117-.163-.074Z" transform="translate(-288.971 -717.603)" fill="#00082a"/>
      <path id="Trazado_3" data-name="Trazado 3" d="M295.684,721.567h34.389c.031.111-.062.14-.112.186q-7.24,6.629-14.484,13.252a7.671,7.671,0,0,1-1.969,1.4,1.42,1.42,0,0,1-1.247,0,8.624,8.624,0,0,1-2.165-1.58q-7.123-6.51-14.236-13.03C295.8,721.733,295.709,721.694,295.684,721.567Z" transform="translate(-291.086 -718.851)" fill="#fdfdfd"/>
      <path id="Trazado_4" data-name="Trazado 4" d="M330.028,753.47h-34.2c.023-.138.134-.186.21-.256q5.406-4.962,10.81-9.925c.2-.188.308-.173.5.008q.845.8,1.727,1.563a6.044,6.044,0,0,0,7.761-.04c.584-.512,1.158-1.035,1.728-1.561.143-.132.228-.172.4-.014q5.46,5.026,10.933,10.037C329.953,753.33,330.041,753.359,330.028,753.47Z" transform="translate(-291.133 -725.647)" fill="#fdfdfd"/>
      <path id="Trazado_5" data-name="Trazado 5" d="M343.485,745.9l-3.776-3.515q-3.628-3.38-7.261-6.753c-.225-.208-.208-.295.008-.489q5.421-4.893,10.83-9.8c.053-.049.112-.092.2-.162Z" transform="translate(-302.614 -719.989)" fill="#fdfdfd"/>
      <path id="Trazado_6" data-name="Trazado 6" d="M292.958,745.908V725.261c.088-.043.12.035.163.074q5.476,4.954,10.951,9.907c.132.119.169.183.014.326q-5.5,5.1-10.983,10.217C293.073,745.814,293.04,745.839,292.958,745.908Z" transform="translate(-290.227 -720.011)" fill="#fdfdfd"/>
    </g>
  </g>
</svg>
