<svg id="Componente_23_1" data-name="Componente 23 – 1" xmlns="http://www.w3.org/2000/svg" xmlns:xlink="http://www.w3.org/1999/xlink" width="152.661" height="36.558" viewBox="0 0 152.661 36.558">
  <defs>
    <radialGradient id="radial-gradient" cx="0.5" cy="0.5" r="0.5" gradientUnits="objectBoundingBox">
      <stop offset="0" stop-color="#eec05d"/>
      <stop offset="0.517" stop-color="#fdff98"/>
      <stop offset="1" stop-color="#967153"/>
    </radialGradient>
    <clipPath id="clip-path">
      <path id="Trazado_37" data-name="Trazado 37" d="M220.006,1067.506a3.271,3.271,0,0,0,1.816,2.621,7.308,7.308,0,0,0,3.581.726c.363,0,.441-.26-.1-.363-1.193-.208-3.166-.856-3.166-1.946,0-3.425,10.508-9.315,19.46-8.692,5.267.363,7.94,1.712,7.94,4,.026,5.085-9.523,10.223-17.41,12.3,2.464-3.321,4.281-5.708,5.915-7.628,2-2.336,3.14-3.893,3.14-4.23,0-.986-2.283-2.854-2.984-2.854-.077,0-.1.026-.1.052a.734.734,0,0,1,.233.622c0,1.168-1.324,2.621-3.218,5.086-2.517,3.27-5.008,6.746-7.109,9.782a21.253,21.253,0,0,1-2.128.13c-1.894,0-3.346-.57-4.021-1.765-.208-.363-.363-.052-.26.208a4.277,4.277,0,0,0,2.776,2.491,8.816,8.816,0,0,0,2.543.571,54.341,54.341,0,0,0-4.359,8.511,1.765,1.765,0,0,0-.13.571c0,1.375,2,2.361,2.336,2.361.052,0,.129-.026.129-.053-.129-.077-.181-.207-.181-.441,0-1.868,2.361-6.565,5.578-10.924a31.319,31.319,0,0,0,10.95-2.853c5.033-2.309,10.482-5.89,10.482-9.289,0-6.513-7.524-8.562-13.155-8.562-9.419,0-18.552,4.282-18.552,9.575" transform="translate(-220.006 -1057.931)" fill="url(#radial-gradient)"/>
    </clipPath>
    <clipPath id="clip-path-2">
      <path id="Trazado_38" data-name="Trazado 38" d="M267.535,1071.623c-1.219.26-4.281,2.881-5.76,4.2-.752.7-1.452,1.4-2.1,2.128a20.747,20.747,0,0,0,2.439-3.529c.026-.363-.338-1.271-1.583-2.075a1.638,1.638,0,0,0-1.271-.312c.467.233.1,1.219-.545,2.231-.649.987-2.465,3.581-3.529,5.138l-1.349,2a8.735,8.735,0,0,0-.986,1.816c-.26.779,1.738,2.336,2.024,2.388s.518-.052.336-.208c-.077-.13.078-.726.571-1.634a24.922,24.922,0,0,1,5.812-6.772,9.232,9.232,0,0,1,5.085-2.413,1.615,1.615,0,0,1,1.454.467,1.241,1.241,0,0,1,.233.778,3.274,3.274,0,0,0,.518-1.686c.075-1.2-.742-2.522-1.29-2.522a.312.312,0,0,0-.06.005" transform="translate(-252.826 -1071.618)" fill="url(#radial-gradient)"/>
    </clipPath>
    <clipPath id="clip-path-3">
      <path id="Trazado_39" data-name="Trazado 39" d="M281.777,1073.439c.181.13-.8,1.816-2.543,3.114-1.79,1.324-4.23,2.958-6.3,3.373,2.62-3.036,6.771-6.487,8.848-6.487m-6.538.467a21.677,21.677,0,0,0-5.735,5.449,6.087,6.087,0,0,0-1.245,3.243c.026,1.272,2.621,3.373,3.866,3.373,2.595,0,9.134-4.852,12.688-8.64.1-.1-.26-.312-.364-.234a48.468,48.468,0,0,1-11.027,6.772,4.284,4.284,0,0,1-1.765.415c-.415,0-.7-.155-.674-.544a7.29,7.29,0,0,1,1.4-3.14c4.748-.026,11.183-4.307,11.183-5.6,0-1.323-1.894-3.036-3.477-3.036a10.123,10.123,0,0,0-4.851,1.946" transform="translate(-268.258 -1071.96)" fill="url(#radial-gradient)"/>
    </clipPath>
    <clipPath id="clip-path-4">
      <path id="Trazado_40" data-name="Trazado 40" d="M287.2,1081.3c0-1.09,5.319-8.355,5.474-8.562l4.333-6.072c1.454-.1,2.88-.156,4.334-.181-1.375,1.972-3.035,4.255-4.463,6.253-.441.6-.882,1.193-1.3,1.816-3.451,3.347-7.706,6.876-8.251,6.876-.1,0-.129-.052-.129-.13m16.943-20.757c.467.233.233,1.089-.337,2.153-.363.649-.908,1.531-1.582,2.543-1.349-.1-2.7-.156-4.048-.181l1.193-1.661a.374.374,0,0,0,.052-.156,3.539,3.539,0,0,0-1.609-2.336,1.854,1.854,0,0,0-1.272-.363c.467.233.233,1.089-.337,2.153-.337.623-.856,1.454-1.479,2.388q-1.323.038-2.646.156c-.389.026-.753.078-1.142.129-.83.1-2.595,2.336-2.283,2.673a17.006,17.006,0,0,1,3.425-.831l1.272-.181c-1.3,1.842-2.777,3.892-4.074,5.708a53.252,53.252,0,0,0-5.008,7.888,1.217,1.217,0,0,0-.1.415c-.026.493.519,1.09,1.22,1.635a3.385,3.385,0,0,0,1.479.674c.779,0,3.866-2.88,5.579-4.671l1.323-1.4a20.83,20.83,0,0,0-1.894,3.348,1.216,1.216,0,0,0-.1.415c-.026.493.518,1.09,1.219,1.635a3.391,3.391,0,0,0,1.479.674c.778,0,3.865-2.88,5.578-4.671s2.958-3.217,3.528-3.969c.13-.182-.181-.364-.363-.182-3.451,3.348-7.732,6.9-8.277,6.9-.1,0-.129-.052-.129-.13,0-1.09,5.318-8.355,5.474-8.562l4.464-6.253c2.8.026,5.345.1,7.29.285.026,0,.13-.052.026-.077a31.525,31.525,0,0,0-6.59-1.193l1.5-2.1a.374.374,0,0,0,.052-.156,3.539,3.539,0,0,0-1.609-2.336,1.947,1.947,0,0,0-1.124-.373.705.705,0,0,0-.148.01" transform="translate(-284.163 -1060.53)" fill="url(#radial-gradient)"/>
    </clipPath>
    <clipPath id="clip-path-5">
      <path id="Trazado_41" data-name="Trazado 41" d="M318.992,1071.992a.487.487,0,0,1,.208.39,3.09,3.09,0,0,1-.934,2.075c-.935,1.09-1.817,1.868-2.829,2.854-3.736,3.581-8.07,6.824-8.77,6.824-.156,0-.208-.156-.208-.26,0-.519,1.868-3.087,3.893-5.6.986-1.22,2.776-3.295,2.776-3.295a.365.365,0,0,0,.052-.156c.026-.363-.312-1.324-1.582-2.413a1.3,1.3,0,0,0-1.22-.337c.26.052.493.208.415.57a5.615,5.615,0,0,1-.96,1.661c-2.8,3.581-5.812,7.24-5.812,8.2,0,1.3,2.1,3.4,3.166,3.4a.351.351,0,0,0,.129-.026c1.5-.778,5.215-4.463,8.225-7.706-.908,1.22-1.765,2.465-2.309,3.322-2.18,3.347-6.461,10.041-7.6,13.025-.675,1.816,2.568,3.452,2.568,3.088a.774.774,0,0,1-.129-.467,5.434,5.434,0,0,1,.545-2.075,35.273,35.273,0,0,1,4.7-6.8c3.424-4.152,8.64-9.678,9.522-10.509.078-.078-.129-.467-.312-.311a116.364,116.364,0,0,0-9.755,9.833c2.023-3.321,4.462-6.8,6.253-9.185,1.038-1.376,2.672-3.477,2.672-3.477a.375.375,0,0,0,.052-.156,3.621,3.621,0,0,0-1.531-2.023,1.934,1.934,0,0,0-1.148-.446.347.347,0,0,0-.071,0" transform="translate(-304.021 -1071.988)" fill="url(#radial-gradient)"/>
    </clipPath>
    <radialGradient id="radial-gradient-11" cx="0.5" cy="0.5" r="0.5" gradientUnits="objectBoundingBox">
      <stop offset="0" stop-color="#eec05d"/>
      <stop offset="0.527" stop-color="#fdff98"/>
      <stop offset="1" stop-color="#967153"/>
    </radialGradient>
  </defs>
  <g id="Grupo_24" data-name="Grupo 24">
    <g id="Grupo_23" data-name="Grupo 23" clip-path="url(#clip-path)">
      <rect id="Rectángulo_25" data-name="Rectángulo 25" width="45.13" height="45.117" transform="translate(-16.046 16.754) rotate(-46.236)" fill="url(#radial-gradient)"/>
    </g>
  </g>
  <g id="Grupo_26" data-name="Grupo 26" transform="translate(25.434 10.607)">
    <g id="Grupo_25" data-name="Grupo 25" clip-path="url(#clip-path-2)">
      <rect id="Rectángulo_26" data-name="Rectángulo 26" width="21.464" height="21.535" transform="translate(-7.251 7.324) rotate(-46.236)" fill="url(#radial-gradient)"/>
    </g>
  </g>
  <g id="Grupo_28" data-name="Grupo 28" transform="translate(37.393 10.872)">
    <g id="Grupo_27" data-name="Grupo 27" clip-path="url(#clip-path-3)">
      <rect id="Rectángulo_27" data-name="Rectángulo 27" width="21.659" height="21.74" transform="translate(-7.024 7.308) rotate(-46.236)" fill="url(#radial-gradient)"/>
    </g>
  </g>
  <g id="Grupo_30" data-name="Grupo 30" transform="translate(49.719 2.014)">
    <g id="Grupo_29" data-name="Grupo 29" clip-path="url(#clip-path-4)">
      <rect id="Rectángulo_28" data-name="Rectángulo 28" width="35.929" height="36.085" transform="translate(-11.47 11.856) rotate(-46.236)" fill="url(#radial-gradient)"/>
    </g>
  </g>
  <g id="Grupo_32" data-name="Grupo 32" transform="translate(65.108 10.894)">
    <g id="Grupo_31" data-name="Grupo 31" clip-path="url(#clip-path-5)">
      <rect id="Rectángulo_29" data-name="Rectángulo 29" width="31.917" height="31.696" transform="translate(-13.039 13.489) rotate(-46.236)" fill="url(#radial-gradient)"/>
    </g>
  </g>
  <g id="Grupo_35" data-name="Grupo 35" transform="translate(87.565 1.641)">
    <g id="Grupo_34" data-name="Grupo 34">
      <path id="Trazado_42" data-name="Trazado 42" d="M358.577,1085.223c0-3.455,1.869-8.754,3.715-12.445a24.177,24.177,0,0,0-2.91-.284c-6.057,6.625-14.575,16.775-19.828,16.775-2.39,0-6.554-2.509-6.554-5.915,0-6.388,13.061-11.689,23.448-11.689.615,0,1.254,0,1.845.048,2.981-2.839,6.247-6.152,8.045-8.139,1.136-1.278,2.082-2.414,2.106-2.981a.513.513,0,0,0-.284-.5.2.2,0,0,1,.142-.048,3.11,3.11,0,0,1,1.892,1.089c.616.615,1.349,1.585,1.113,1.988a49.486,49.486,0,0,0-5.821,9.558,17.49,17.49,0,0,1,5.134,2.272c.071.046,0,.284-.165.189a21.424,21.424,0,0,0-5.205-1.916c-2.863,6.293-3.9,10.316-3.9,12.729,0,.9.071,2.248,1.3,2.248a6.665,6.665,0,0,0,2.958-1.089c.189-.142.236-.023.095.19-.426.568-1.633,1.845-2.509,1.845A4.507,4.507,0,0,1,358.577,1085.223Zm-21.365,2.2c3.6-.024,12.942-7.264,20.324-14.978-12.28.4-22.548,7.808-22.548,12.612A2.149,2.149,0,0,0,337.212,1087.424Zm22.761-15.616c.828.07,1.822.212,2.65.355,1.68-3.384,3.9-7.264,5.679-10.174A105.362,105.362,0,0,1,359.973,1071.808Z" transform="translate(-333 -1060.048)" fill="url(#radial-gradient-11)"/>
      <path id="Trazado_43" data-name="Trazado 43" d="M388.1,1078.537a12.2,12.2,0,0,1-2.106,3.146c-1.917,2.106-5.229,4.8-8.376,4.8a4.8,4.8,0,0,1-3.1-1.467c-2.556,4.165-6.555,10.742-5.442,12.067,0,.332-3.194-1.23-2.578-2.886a75.336,75.336,0,0,1,6.341-11.4c1.443-2.13,3.951-5.583,4.874-6.956.639-.946.923-1.822.5-2.035a1.319,1.319,0,0,1,1.017.308,4.054,4.054,0,0,1,1.278,1.255,7.6,7.6,0,0,1,4.448-1.61c1.751,0,3.644,1.514,3.644,2.792a4.669,4.669,0,0,1-.308,1.491c.993-.119,2.437-.285,3.146-.332.143,0,.237.378.024.4C390.54,1078.205,388.883,1078.418,388.1,1078.537Zm-12.044,6.482c2.343,0,5.868-2.933,8.281-5.749-3.123.639-8.991,3.9-8.991,5.395C375.349,1084.972,375.775,1085.019,376.059,1085.019Zm8.542-6.53.4-.071a5.758,5.758,0,0,0,1.325-3.005.724.724,0,0,0-.828-.78,8.425,8.425,0,0,0-3.786,1.775,23.08,23.08,0,0,0-4.543,4.661A23.042,23.042,0,0,1,384.6,1078.49Z" transform="translate(-340.522 -1063.133)" fill="url(#radial-gradient-11)"/>
      <path id="Trazado_44" data-name="Trazado 44" d="M406.207,1078.537a12.163,12.163,0,0,1-2.106,3.146c-1.916,2.106-5.229,4.8-8.376,4.8a4.8,4.8,0,0,1-3.1-1.467c-2.555,4.165-6.554,10.742-5.442,12.067,0,.332-3.194-1.23-2.579-2.886a75.409,75.409,0,0,1,6.341-11.4c1.443-2.13,3.951-5.583,4.874-6.956.639-.946.923-1.822.5-2.035a1.32,1.32,0,0,1,1.018.308,4.055,4.055,0,0,1,1.278,1.255,7.6,7.6,0,0,1,4.448-1.61c1.751,0,3.644,1.514,3.644,2.792a4.668,4.668,0,0,1-.308,1.491c.993-.119,2.437-.285,3.146-.332.142,0,.237.378.024.4C408.645,1078.205,406.988,1078.418,406.207,1078.537Zm-12.043,6.482c2.343,0,5.868-2.933,8.281-5.749-3.123.639-8.991,3.9-8.991,5.395C393.454,1084.972,393.88,1085.019,394.164,1085.019Zm8.542-6.53.4-.071a5.758,5.758,0,0,0,1.325-3.005.724.724,0,0,0-.828-.78,8.425,8.425,0,0,0-3.786,1.775,23.08,23.08,0,0,0-4.543,4.661A23.042,23.042,0,0,1,402.706,1078.49Z" transform="translate(-344.596 -1063.133)" fill="url(#radial-gradient-11)"/>
    </g>
  </g>
</svg>
