<svg xmlns="http://www.w3.org/2000/svg" width="62.387" height="62.4" viewBox="0 0 62.387 62.4">
  <g id="Grupo_22" data-name="Grupo 22" transform="translate(-541.348 -1053.393)">
    <path id="Trazado_33" data-name="Trazado 33" d="M541.348,1115.793v-62.4h62.387v62.4Zm37.276-45.382a7.276,7.276,0,0,0,2.131-2.338c.256-.418.193-.637-.175-.947a19.9,19.9,0,0,0-22.489-2.416,20.054,20.054,0,0,0-4.362,32.2.812.812,0,0,1,.256.982c-.866,2.617-1.694,5.247-2.549,7.869-.139.425-.19.817.229,1.081.444.28.791.05,1.127-.276,1.938-1.88,3.892-3.744,5.827-5.628a.724.724,0,0,1,.936-.16,19.162,19.162,0,0,0,11.252,1.36c1.78-.328,3.512-.917,5.266-1.388.047-.094.123-.029.2.041q3.031,2.91,6.06,5.825c.351.339.712.485,1.132.179s.282-.713.154-1.109c-.838-2.584-1.668-5.171-2.523-7.75a.857.857,0,0,1,.223-1,28.57,28.57,0,0,0,2.621-3.037,19.7,19.7,0,0,0,3.377-14.92c-.059-.371-.189-.561-.574-.509-.957.129-1.915.257-2.871.4-.429.062-.536.305-.455.734a15.867,15.867,0,0,1,0,5.691,16.131,16.131,0,1,1-8.828-17.393C575.966,1068.585,577.224,1069.531,578.624,1070.411Zm-3.87,2.226a12.147,12.147,0,1,0-2.434,20.932,11.933,11.933,0,0,0,7.24-12.414c-1.037.581-2.046,1.184-3.091,1.715a1.538,1.538,0,0,0-.894,1.225,8.231,8.231,0,0,1-9.131,6.453,8.239,8.239,0,1,1,4.019-15.864.737.737,0,0,0,.5.056C572.23,1074.059,573.478,1073.351,574.754,1072.637Zm18.517-10.044c-3.026,1.7-5.927,3.316-8.818,4.956a1.134,1.134,0,0,0-.409.559,10.154,10.154,0,0,1-4.593,5.33c-3,1.7-6.015,3.37-9.017,5.064a.678.678,0,0,1-.765.009,4.3,4.3,0,1,0,2.137,4.066.815.815,0,0,1,.481-.8c3.015-1.67,6.015-3.369,9.027-5.046a10.342,10.342,0,0,1,6.944-1.139,1.392,1.392,0,0,0,.844-.142c2.7-1.489,5.384-3,8.072-4.51.16-.089.315-.188.564-.338l-6.081-1.726Z" fill="none"/>
    <path id="Trazado_34" data-name="Trazado 34" d="M578.624,1070.411c-1.4-.88-2.658-1.826-4.043-2.518a16.123,16.123,0,1,0,8.828,17.393,15.867,15.867,0,0,0,0-5.691c-.081-.429.026-.672.455-.734.956-.139,1.914-.267,2.871-.4.385-.052.515.138.574.509a19.7,19.7,0,0,1-3.377,14.92,28.57,28.57,0,0,1-2.621,3.037.857.857,0,0,0-.223,1c.855,2.579,1.685,5.166,2.523,7.75.128.4.261.806-.154,1.109s-.781.16-1.132-.179q-3.021-2.922-6.06-5.825c-.073-.07-.149-.135-.2-.041-1.754.471-3.486,1.06-5.266,1.388a19.162,19.162,0,0,1-11.252-1.36.724.724,0,0,0-.936.16c-1.935,1.884-3.889,3.748-5.827,5.628-.336.326-.683.556-1.127.276-.419-.264-.368-.656-.229-1.081.855-2.622,1.683-5.252,2.549-7.869a.812.812,0,0,0-.256-.982,20.054,20.054,0,0,1,4.362-32.2,19.9,19.9,0,0,1,22.489,2.416c.368.31.431.529.175.947A7.276,7.276,0,0,1,578.624,1070.411Z" fill="#fff"/>
    <path id="Trazado_35" data-name="Trazado 35" d="M574.754,1072.637c-1.276.714-2.524,1.422-3.787,2.1a.737.737,0,0,1-.5-.056,8.24,8.24,0,1,0,5.112,9.411,1.538,1.538,0,0,1,.894-1.225c1.045-.531,2.054-1.134,3.091-1.715a11.933,11.933,0,0,1-7.24,12.414,12.162,12.162,0,1,1,2.434-20.932Z" fill="#fff"/>
    <path id="Trazado_36" data-name="Trazado 36" d="M593.271,1062.593l-1.614,6.286,6.081,1.726c-.249.15-.4.249-.564.338-2.688,1.508-5.374,3.021-8.072,4.51a1.392,1.392,0,0,1-.844.142,10.342,10.342,0,0,0-6.944,1.139c-3.012,1.677-6.012,3.376-9.027,5.046a.815.815,0,0,0-.481.8,4.28,4.28,0,1,1-2.137-4.066.678.678,0,0,0,.765-.009c3-1.694,6.016-3.368,9.017-5.064a10.154,10.154,0,0,0,4.593-5.33,1.134,1.134,0,0,1,.409-.559C587.344,1065.909,590.245,1064.289,593.271,1062.593Z" fill="#fff"/>
  </g>
</svg>
