<svg xmlns="http://www.w3.org/2000/svg" width="43.498" height="43.499" viewBox="0 0 43.498 43.499">
  <path id="Trazado_27" data-name="Trazado 27" d="M46.785,12A21.75,21.75,0,1,1,25.037,33.625,21.747,21.747,0,0,1,46.785,12ZM57.439,25.153a27.569,27.569,0,0,1,1.384,7.527h7.566a19.59,19.59,0,0,0-3.627-10.342,28.949,28.949,0,0,1-2.591,1.549A28.35,28.35,0,0,1,57.439,25.153Zm-22.69,7.529a27.529,27.529,0,0,1,1.384-7.529,28.768,28.768,0,0,1-5.324-2.814,19.591,19.591,0,0,0-3.626,10.343Zm-7.566,2.136A19.591,19.591,0,0,0,30.81,45.161a28.628,28.628,0,0,1,5.26-2.791,27.571,27.571,0,0,1-1.33-7.552Zm39.206,0H58.831a27.578,27.578,0,0,1-1.33,7.552,28.758,28.758,0,0,1,5.262,2.788A19.592,19.592,0,0,0,66.388,34.819ZM45.716,40.312V34.821H36.873a25.267,25.267,0,0,0,1.209,6.823A28.791,28.791,0,0,1,45.716,40.312Zm9.791,1.332a25.466,25.466,0,0,0,1.2-6.823H47.852c0,.039,0,.068,0,.1q0,2.64,0,5.281c0,.094.03.114.119.121.8.063,1.6.115,2.4.2a25.9,25.9,0,0,1,4.108.819C54.811,41.437,55.15,41.54,55.507,41.644Zm-9.79-14.457a28.817,28.817,0,0,1-7.589-1.317,25.551,25.551,0,0,0-1.258,6.812h8.847Zm9.73-1.3a.224.224,0,0,0-.042,0c-.036.01-.072.019-.107.03a28.453,28.453,0,0,1-7.324,1.265c-.1,0-.128.037-.127.136q0,2.624,0,5.246c0,.039,0,.079.005.119H56.7A25.522,25.522,0,0,0,55.447,25.883ZM45.715,53.174V42.447a26.006,26.006,0,0,0-6.911,1.21A25.53,25.53,0,0,0,45.715,53.174Zm2.139,0a25.554,25.554,0,0,0,6.919-9.531,26.467,26.467,0,0,0-6.919-1.207ZM45.716,25.063V14.536a25.537,25.537,0,0,0-6.839,9.344A26.527,26.527,0,0,0,45.716,25.063Zm8.972-1.2a25.532,25.532,0,0,0-6.832-9.327V25.054A26.167,26.167,0,0,0,54.688,23.865ZM42.541,14.592a19.116,19.116,0,0,0-5.673,2.214,19.654,19.654,0,0,0-4.723,3.868,26.783,26.783,0,0,0,4.738,2.481,27.711,27.711,0,0,1,2.427-4.533A29.138,29.138,0,0,1,42.541,14.592Zm14.152,8.574a26.412,26.412,0,0,0,4.732-2.49A19.457,19.457,0,0,0,58.4,17.926,19.035,19.035,0,0,0,51.02,14.6,27.644,27.644,0,0,1,56.693,23.167ZM42.286,52.852a29.391,29.391,0,0,1-3.128-4A28.088,28.088,0,0,1,36.8,44.362a26.456,26.456,0,0,0-4.66,2.462A19.586,19.586,0,0,0,42.286,52.852Zm14.483-8.49a27.977,27.977,0,0,1-2.358,4.5,29.32,29.32,0,0,1-3.129,4A19.593,19.593,0,0,0,61.43,46.824,26.4,26.4,0,0,0,56.769,44.362Z" transform="translate(-25.037 -12)" fill="#00082a"/>
</svg>
